<?xml version="1.0" encoding="utf-8"?>
<!-- Generator: Adobe Illustrator 27.5.0, SVG Export Plug-In . SVG Version: 6.00 Build 0)  -->
<svg version="1.1" id="Capa_1" xmlns="http://www.w3.org/2000/svg" xmlns:xlink="http://www.w3.org/1999/xlink" x="0px" y="0px"
	 viewBox="0 0 512 512" style="enable-background:new 0 0 512 512;" xml:space="preserve">
<style type="text/css">
	.st0{display:none;}
	.st1{display:inline;fill:#075DB2;}
	.st2{display:inline;fill:#1F75CB;}
	.st3{fill:#1F75CB;}
	.st4{fill:#F2B02C;}
	.st5{fill:#FDFDFD;}
</style>
<g id="block" class="st0">
	<path class="st1" d="M487,512H25c-13.8,0-25-11.2-25-25V83c0-13.8,11.2-25,25-25h462c13.8,0,25,11.3,25,25v404
		C512,500.8,500.8,512,487,512z"/>
	<path class="st2" d="M487,454H25c-13.8,0-25-11.2-25-25V25C0,11.2,11.2,0,25,0h462c13.8,0,25,11.2,25,25v404
		C512,442.7,500.8,454,487,454z"/>
</g>
<g>
	<g>
		<g id="letter">
			<path class="st3" d="M97.2,457.7c-3.7,0-6.3-0.7-7.9-2c-1.5-1.3-2.3-3.5-2.3-6.6v-54.2c0-4.7,1.4-8,4.1-9.9
				c2.7-1.9,6.4-2.8,11.2-2.8h145.3c5.1,0,7.6,2.5,7.6,7.6V445c0,4.7-1.4,8-4.1,9.9c-2.7,1.9-6.4,2.8-11.2,2.8H97.2z"/>
			<path class="st3" d="M420,459.2c-9.1-0.3-17.2-1.1-24.3-2.3c-7.1-1.2-14.4-3-22-5.6s-16.2-6.2-25.9-10.9
				c-9.6-4.7-21.2-10.8-34.7-18.2c-7.4,9.5-15.3,16.8-23.6,22c-8.3,5.2-16.6,8.8-24.8,10.6c-8.3,1.9-16.5,2.8-24.6,2.8
				c-5.1,0-7.6-2.5-7.6-7.6v-52.7c0-10.1,5.1-15.2,15.2-15.2c6.8,0,12.7-0.9,17.7-2.8c5.1-1.9,10.3-5.9,15.7-12.2
				c5.4-6.2,11.8-15.8,19.3-28.6c12.8-22.3,25.3-39.4,37.5-51.4c12.2-12,24.3-20.4,36.5-25.1c12.2-4.7,24.7-7.1,37.5-7.1
				c17.6,0,33.7,4.4,48.4,13.2c14.7,8.8,26.4,21.2,35.2,37.3c8.8,16.1,13.2,35.4,13.2,58c0,13.2-1.9,25.7-5.8,37.5
				c-3.9,11.8-9.6,22.2-17,31.2c-7.4,9-16.7,15.8-27.9,20.5C446.8,457.3,434.1,459.5,420,459.2z M421,393.3c7.8,0,14.2-2.4,19.3-7.1
				c5.1-4.7,7.8-12.5,8.1-23.3c0-9.1-1.9-17.1-5.6-23.8c-3.7-6.8-8.8-12.1-15.2-16c-6.4-3.9-13.5-5.8-21.3-5.8
				c-6.4,0-12.6,1.4-18.5,4.1c-5.9,2.7-12.1,7.5-18.5,14.4c-6.4,6.9-13.7,17-21.8,30.2c13.9,7.8,24.9,13.6,33.2,17.5
				c8.3,3.9,15.5,6.4,21.8,7.6C408.7,392.2,414.9,393,421,393.3z"/>
		</g>
		<polygon id="star" class="st4" points="112.1,379.9 170.8,401.3 121.2,439.1 99.9,497.8 62,448.2 3.3,426.9 52.9,389 74.3,330.3 
					"/>
	</g>
	<path id="wand" class="st5" d="M140.3,350.6c8.6,8.6,21.4,8.6,30,0L421,99.9c8.6-8.6,8.6-21.4,0-30l-49.3-49.3
		c-8.6-8.6-21.4-8.6-30,0L91,271.4c-8.6,8.6-8.6,21.4,0,30L140.3,350.6z M163.9,232.8l45,45l-51.4,51.4l-45-45L163.9,232.8z"/>
</g>
</svg>
