<?xml version="1.0" encoding="UTF-8"?><svg id="Layer_1" xmlns="http://www.w3.org/2000/svg" viewBox="0 0 487 163"><defs><style>.cls-1{fill:#d99e27;}.cls-2{fill:#f2b02c;}.cls-3{fill:#fdfdfd;}</style></defs><polygon class="cls-2" points="68.57 45.96 0 111.29 49.81 117.11 62.74 163.03 127.43 99.64 68.57 45.96"/><polygon class="cls-1" points="60.16 126.16 106.03 120.62 127.43 99.64 68.57 45.96 50.08 63.57 60.16 126.16"/><polygon class="cls-2" points="418.83 45.96 487.4 111.29 437.59 117.11 424.65 163.03 359.97 99.64 418.83 45.96"/><polygon class="cls-1" points="427.24 126.16 381.37 120.62 359.97 99.64 418.83 45.96 437.32 63.57 427.24 126.16"/><path class="cls-2" d="m45.16,13.94l18.44,100.9s238.68-20.87,358.02,1.91l20.61-100.38s-118.25-30.63-397.07-2.43Z"/><path class="cls-3" d="m82.31,92.27c-3.32.35-6.1-.23-8.34-1.76-2.25-1.53-3.98-3.65-5.21-6.38-1.23-2.73-1.96-5.74-2.1-8.93-.02-.49.08-.96.28-1.39.2-.43.45-.66.75-.7,2.52-.29,3.77-.43,6.29-.71.47-.05.83.06,1.09.35.26.28.5.66.71,1.14.3.9.7,1.76,1.21,2.58.51.82,1.17,1.45,1.96,1.89.8.44,1.78.6,2.94.48,1.93-.2,3.37-.92,4.31-2.14.95-1.22,1.39-2.79,1.33-4.72-.04-1.37-.34-2.48-.9-3.32-.56-.85-1.44-1.57-2.65-2.16-1.2-.59-2.82-1.15-4.79-1.69-2.55-.7-4.77-1.77-6.6-3.16-1.84-1.39-3.27-3.31-4.29-5.79-1.02-2.47-1.6-5.64-1.73-9.49-.13-3.79.33-7.25,1.39-10.37,1.06-3.12,2.6-5.63,4.63-7.55,2.03-1.91,4.47-3.02,7.33-3.33,2.32-.25,4.38.1,6.17,1.04,1.8.94,3.33,2.28,4.59,4.03s2.23,3.63,2.91,5.66c.68,2.03,1.08,4.05,1.15,6.02.02.49-.07.96-.26,1.38-.19.42-.43.65-.74.68-2.65.26-3.98.39-6.63.66-.37.04-.69-.05-.96-.28-.27-.22-.52-.6-.74-1.14-.24-1.35-.81-2.49-1.69-3.43-.89-.94-2.02-1.33-3.39-1.19-1.47.16-2.61.76-3.4,1.82-.79,1.05-1.15,2.58-1.09,4.57.04,1.25.3,2.31.78,3.19.48.88,1.26,1.61,2.33,2.18,1.07.57,2.58,1.19,4.4,1.69,2.97.8,5.57,1.81,7.48,3.21,1.92,1.4,3.34,3.32,4.28,5.76.94,2.44,1.46,5.55,1.57,9.35.12,4.23-.42,7.95-1.61,11.15-1.19,3.2-2.89,5.73-5.1,7.57-2.21,1.84-4.77,2.92-7.69,3.23Z"/><path class="cls-3" d="m103.48,89.24c-.37.03-.67-.16-.91-.57-.24-.41-.38-.96-.39-1.65-.55-20.22-1.09-40.45-1.64-60.67-.02-.68.08-1.25.31-1.71.22-.46.52-.7.89-.74,5.64-.52,8.47-.76,14.11-1.23,2.79-.23,5.24.37,7.34,1.8,2.1,1.43,3.77,3.69,4.99,6.78,1.23,3.09,1.89,7.06,1.99,11.92.1,4.79-.39,8.79-1.47,11.99-1.08,3.2-2.64,5.62-4.65,7.28-2.02,1.65-4.41,2.59-7.17,2.82-2.38.2-3.57.3-5.95.5.21,8.18.31,12.27.52,20.45.02.69-.09,1.26-.33,1.71-.24.46-.54.7-.9.73-2.69.23-4.03.35-6.72.6Zm6.96-36.36c2.35-.2,3.52-.3,5.86-.5,1.44-.12,2.56-.9,3.39-2.33.82-1.44,1.2-3.56,1.13-6.36-.05-2.37-.47-4.33-1.24-5.89-.77-1.56-2-2.27-3.68-2.13-2.35.19-3.53.29-5.88.5.17,6.68.25,10.03.42,16.71Z"/><path class="cls-3" d="m137.12,86.53c-.37.03-.67-.17-.91-.59-.24-.42-.37-.97-.38-1.66-.41-20.24-.83-40.47-1.24-60.71-.01-.68.09-1.25.32-1.71.23-.45.52-.69.89-.72,9.42-.65,14.13-.94,23.55-1.44.37-.02.68.18.92.61.24.42.37.98.38,1.66.05,3.51.08,5.27.13,8.78.01.69-.1,1.25-.33,1.7-.23.45-.53.68-.9.7-6.42.34-9.63.53-16.04.94.09,5.04.14,7.57.24,12.61,5.96-.38,8.94-.56,14.9-.88.37-.02.67.2.91.65.24.45.37,1.03.38,1.71.05,3.25.08,4.88.13,8.13,0,.62-.1,1.17-.33,1.65-.23.48-.52.73-.89.75-5.95.32-8.92.5-14.86.88.1,5.19.15,7.79.24,12.98,6.53-.42,9.79-.61,16.32-.96.37-.02.67.18.91.61.24.42.36.98.38,1.66.05,3.51.08,5.27.13,8.78.01.69-.1,1.25-.32,1.7-.23.45-.52.68-.89.7-9.46.5-14.19.79-23.65,1.44Z"/><path class="cls-3" d="m168.94,84.68c-.37.02-.67-.19-.91-.61-.24-.42-.36-.98-.37-1.66-.29-20.24-.57-40.48-.86-60.73,0-.68.1-1.25.33-1.7.23-.45.53-.68.9-.7,2.66-.13,3.99-.19,6.66-.3.34-.01.63.19.89.62.26.43.39.98.4,1.67.2,16.32.4,32.64.6,48.96,6.03-.25,9.05-.37,15.08-.56.37-.01.68.21.93.67.25.46.38,1.03.39,1.72.03,3.74.05,5.61.09,9.34,0,.69-.11,1.25-.36,1.69-.24.44-.55.67-.91.68-9.14.29-13.71.48-22.86.91Z"/><path class="cls-3" d="m198.66,83.57c-.37.01-.67-.2-.9-.63-.24-.43-.36-.99-.36-1.67-.17-20.25-.33-40.49-.5-60.74,0-.68.11-1.25.34-1.69.23-.44.53-.67.9-.68,2.66-.07,4-.11,6.66-.17.34,0,.63.2.89.63.26.43.38.99.39,1.67.11,16.32.21,32.65.32,48.97,6.03-.13,9.05-.19,15.08-.26.37,0,.67.23.93.69.25.46.38,1.04.38,1.72.01,3.74.02,5.61.03,9.35,0,.69-.12,1.25-.37,1.69-.25.44-.55.66-.92.67-9.14.11-13.72.2-22.86.45Z"/><path class="cls-3" d="m228.4,83.05c-.37,0-.66-.21-.9-.65-.23-.43-.35-.99-.35-1.68-.05-20.25-.1-40.5-.15-60.75,0-.68.11-1.25.35-1.69.23-.44.54-.66.91-.66,2.7-.02,4.06-.03,6.76-.03.37,0,.67.22.91.65.24.44.35,1,.35,1.68.01,20.25.02,40.5.04,60.75,0,.69-.12,1.25-.35,1.68-.23.44-.53.66-.9.66-2.67,0-4,.01-6.67.03Z"/><path class="cls-3" d="m244.53,83.02c-.37,0-.66-.22-.9-.66-.23-.44-.35-1-.35-1.68.02-20.25.03-40.5.05-60.75,0-.68.12-1.25.35-1.68.24-.43.54-.65.91-.65,2.14,0,3.21.01,5.35.03.57,0,.98.24,1.23.71.25.47.41.83.48,1.08,4.07,12.03,8.12,24.08,12.13,36.13.06-11.81.11-23.61.17-35.42,0-.68.12-1.24.36-1.68.24-.43.54-.65.91-.64,2.42.04,3.63.07,6.05.12.37,0,.67.23.9.67.23.44.35,1.01.34,1.69-.13,20.25-.26,40.5-.39,60.74,0,.62-.12,1.17-.36,1.63-.24.46-.54.69-.9.68-2.13-.05-3.2-.07-5.33-.1-.53,0-.92-.26-1.17-.77-.25-.5-.4-.85-.47-1.04-3.99-11.59-8.02-23.16-12.07-34.73-.03,11.34-.06,22.68-.08,34.02,0,.69-.12,1.25-.35,1.68-.23.43-.53.65-.9.65-2.39-.02-3.59-.02-5.98-.03Z"/><path class="cls-3" d="m293.48,84.94c-3.15-.12-5.86-1.19-8.11-3.22-2.26-2.03-3.99-4.95-5.21-8.75-1.22-3.8-1.91-8.45-1.97-13.84-.03-2.66,0-5.53.02-8.55.02-3.02.04-5.92.12-8.64.14-5.26.91-9.76,2.22-13.4,1.3-3.64,3.13-6.39,5.46-8.25,2.34-1.86,5.07-2.73,8.2-2.62,2.52.09,4.75.76,6.69,1.99,1.94,1.23,3.55,2.85,4.86,4.84,1.3,1.99,2.28,4.15,2.94,6.49.66,2.34.94,4.68.99,6.87.01.55-.07,1.03-.3,1.39-.22.36-.49.54-.79.52-2.93-.14-4.4-.2-7.33-.32-.37-.02-.64-.14-.83-.36-.18-.23-.34-.56-.47-1-.22-.94-.56-1.94-1-2.98-.44-1.05-1.05-1.96-1.83-2.74-.78-.78-1.81-1.19-3.08-1.24-1.91-.07-3.42.81-4.53,2.65-1.11,1.83-1.74,4.81-1.87,8.91-.17,5.34-.21,10.79-.15,16.26.05,4.35.65,7.53,1.76,9.5,1.11,1.97,2.6,2.99,4.46,3.05,1.26.05,2.39-.32,3.38-1.09.99-.77,1.78-2,2.37-3.69.59-1.69.9-3.87.93-6.55,0-.71.01-1.07.02-1.78-1.88-.08-2.82-.11-4.7-.19-.37-.01-.67-.26-.92-.74-.25-.48-.36-1.06-.36-1.74.03-2.77.04-4.15.07-6.91,0-.68.14-1.26.39-1.71.26-.46.57-.68.94-.67,5.06.19,7.59.3,12.64.53.37.02.67.26.89.74.23.48.34,1.06.33,1.75-.06,4.26-.09,6.39-.15,10.65-.07,5.36-.79,9.9-2.14,13.64-1.35,3.74-3.22,6.57-5.62,8.49-2.4,1.92-5.17,2.83-8.33,2.71Z"/><path class="cls-3" d="m329.52,86.7c-2.99-.18-5.58-1.25-7.8-3.21-2.21-1.96-3.9-4.89-5.08-8.78-1.17-3.89-1.72-8.8-1.63-14.72.19-12.71.38-25.41.57-38.12.01-.68.14-1.24.38-1.66.24-.42.55-.63.92-.61,2.6.13,3.9.21,6.51.35.37.02.67.26.9.71.23.45.34,1.02.33,1.7-.21,12.67-.42,25.35-.63,38.02-.07,4.05.41,7.11,1.42,9.2,1.01,2.09,2.47,3.18,4.37,3.3,1.86.11,3.34-.81,4.42-2.76,1.09-1.96,1.67-4.96,1.75-9,.24-12.67.48-25.34.72-38.01.01-.68.15-1.24.41-1.66.26-.42.56-.62.9-.6,2.62.17,3.93.26,6.55.45.34.02.63.26.87.72.24.45.36,1.02.34,1.71-.26,12.7-.53,25.4-.79,38.1-.12,5.92-.84,10.74-2.15,14.49-1.31,3.74-3.09,6.46-5.35,8.15-2.26,1.69-4.9,2.44-7.92,2.25Z"/><path class="cls-3" d="m348.26,87.02c-.27-.02-.5-.24-.71-.66-.21-.42-.31-.88-.29-1.38,0-.31.03-.59.07-.84,4.33-19.69,8.7-39.37,13.12-59.04.12-.68.34-1.27.67-1.77.33-.5.78-.73,1.35-.68,2.98.25,4.48.37,7.46.63.57.05,1.01.35,1.32.91.31.56.5,1.18.58,1.88,3.4,20.33,6.77,40.67,10.1,61.01.06.26.08.54.08.85-.01.5-.13.94-.36,1.32-.23.39-.49.56-.79.53-2.45-.23-3.67-.35-6.12-.57-.5-.05-.86-.31-1.1-.8-.24-.49-.38-.92-.44-1.3-.68-3.88-1.01-5.82-1.69-9.7-5.33-.48-7.99-.7-13.32-1.13-.85,3.75-1.27,5.62-2.12,9.37-.08.37-.23.78-.48,1.23-.24.45-.65.65-1.21.61-2.45-.19-3.67-.28-6.12-.46Zm12.29-24.02c3.72.3,5.58.46,9.3.79-1.63-10.02-2.45-15.03-4.09-25.05-2.09,9.7-3.14,14.55-5.21,24.26Z"/><path class="cls-3" d="m387.12,90.4c-.37-.04-.66-.28-.88-.74-.22-.46-.32-1.03-.3-1.71.59-20.22,1.17-40.44,1.76-60.66.02-.68.15-1.23.4-1.65.25-.41.56-.6.93-.56,2.66.27,3.99.4,6.65.68.34.04.62.28.86.75.24.46.35,1.04.33,1.72-.5,16.3-1,32.6-1.5,48.89,6.03.63,9.04.97,15.06,1.66.37.04.67.31.9.81.23.5.34,1.09.32,1.77-.13,3.73-.19,5.6-.32,9.33-.02.68-.17,1.23-.43,1.64-.26.41-.58.59-.94.55-9.13-1.06-13.7-1.55-22.83-2.46Z"/></svg>