<?xml version="1.0" encoding="UTF-8"?><svg id="Layer_1" xmlns="http://www.w3.org/2000/svg" viewBox="0 0 607 199"><defs><style>.cls-1{fill:#d99e27;}.cls-2{fill:#f2b02c;}.cls-3{fill:#fdfdfd;}</style></defs><polygon class="cls-2" points="85.24 53 -.21 134.42 61.86 141.67 77.99 198.91 158.6 119.91 85.24 53"/><polygon class="cls-1" points="74.76 152.96 131.93 146.04 158.6 119.91 85.24 53 62.2 74.95 74.76 152.96"/><polygon class="cls-2" points="521.76 53 607.21 134.42 545.14 141.67 529.01 198.91 448.4 119.91 521.76 53"/><polygon class="cls-1" points="532.24 152.96 475.07 146.04 448.4 119.91 521.76 53 544.8 74.95 532.24 152.96"/><path class="cls-2" d="m63.23,14.73l22.32,122.1s288.85-25.26,433.27,2.31l24.95-121.48S400.66-19.41,63.23,14.73Z"/><path class="cls-3" d="m119.19,102.54c-5.37.37-10.03-.17-13.97-1.64-3.95-1.47-7.12-3.81-9.51-7.03-2.39-3.22-3.96-7.38-4.52-12.34-.26-2.28-.46-4.79-.67-7.44-.21-2.65-.41-5.22-.51-7.62-.21-4.87.72-9.18,2.65-12.77,1.92-3.58,4.78-6.41,8.58-8.48,3.8-2.07,8.39-3.29,13.77-3.66,3.82-.26,7.38-.03,10.68.69,3.3.72,6.22,1.9,8.75,3.53,2.53,1.63,4.55,3.66,6.06,6.1,1.5,2.43,2.25,5.39,2.62,8.39.06.49-.05.94-.4,1.3-.35.36-.79.56-1.3.59-4.65.28-6.97.42-11.62.72-.75.05-1.33-.07-1.75-.36-.42-.28-.8-.84-1.15-1.67-1-2.94-2.44-4.9-4.33-5.88-1.89-.98-4.16-1.38-6.8-1.2-3.17.22-5.61,1.26-7.33,3.11-1.72,1.85-2.52,4.8-2.39,8.81.15,4.63.49,9.4,1.03,14.23.45,3.98,1.67,6.79,3.61,8.38,1.94,1.59,4.47,2.28,7.6,2.06,2.61-.18,4.79-.89,6.53-2.14,1.74-1.25,2.89-3.37,3.44-6.35.17-.86.46-1.46.87-1.8.41-.34.98-.53,1.72-.58,4.62-.3,6.93-.44,11.55-.71.51-.03.96.11,1.36.43.39.32.55.75.55,1.24-.02,3.03-.4,6.05-1.59,8.64-1.18,2.59-2.91,4.85-5.18,6.78-2.27,1.93-4.96,3.46-8.07,4.59-3.11,1.14-6.53,1.83-10.26,2.09Z"/><path class="cls-3" d="m178.67,99.11c-5.21.24-9.77-.38-13.71-1.88-3.94-1.5-7.08-3.89-9.43-7.19-2.35-3.3-3.84-7.56-4.3-12.64-.22-2.4-.36-4.85-.5-7.29-.14-2.43-.27-4.91-.33-7.38-.11-5.04.92-9.45,2.95-13.05,2.03-3.6,4.96-6.38,8.81-8.33,3.84-1.95,8.4-3.06,13.67-3.3,5.21-.24,9.84.44,13.87,2.02,4.03,1.59,7.24,4.08,9.63,7.48,2.38,3.39,3.72,7.67,4.11,12.72.19,2.47.35,4.94.44,7.37.09,2.43.12,4.87.1,7.3-.05,5.15-1.08,9.48-3.11,12.99-2.03,3.51-4.94,6.18-8.72,8.04-3.78,1.86-8.27,2.9-13.48,3.14Zm-.57-12.21c3.01-.14,5.43-1.15,7.26-3.05,1.83-1.89,2.68-4.85,2.66-8.78-.01-2.47-.03-4.84-.13-7.05-.09-2.21-.25-4.5-.46-6.86-.23-2.65-.82-4.8-1.79-6.42-.96-1.63-2.24-2.81-3.83-3.53-1.59-.72-3.4-1.04-5.41-.94-1.96.09-3.7.57-5.22,1.44-1.52.87-2.7,2.16-3.53,3.87-.84,1.71-1.27,3.93-1.23,6.56.04,2.36.15,4.67.26,6.87.11,2.21.23,4.58.44,7.03.33,3.91,1.54,6.78,3.51,8.5,1.97,1.72,4.45,2.5,7.47,2.36Z"/><path class="cls-3" d="m216.94,96.76c-.62.02-1.14-.16-1.55-.54-.41-.38-.62-.88-.65-1.51-.6-18.38-1.21-36.77-1.81-55.15-.02-.62.16-1.14.56-1.55.39-.41.91-.62,1.54-.64,9.45-.3,14.17-.43,23.62-.66,7.47-.18,13.4,1.4,17.76,4.69,4.36,3.29,6.58,8.03,6.67,14.2.06,4.02-.88,7.43-2.82,10.23-1.93,2.81-4.49,4.94-7.66,6.42,4.89,8.26,7.31,12.4,12.13,20.69.18.34.26.65.27.93,0,.45-.17.87-.54,1.24-.36.37-.8.56-1.31.57-4.49.07-6.73.1-11.22.19-1.08.02-1.88-.23-2.4-.76-.52-.53-.9-1.01-1.14-1.46-4.03-7.39-6.06-11.08-10.14-18.46-3.53.08-5.29.13-8.82.23.21,7.54.31,11.3.51,18.84.02.62-.17,1.14-.55,1.54-.39.41-.89.62-1.51.64-4.38.12-6.58.19-10.96.33Zm12.19-33.32c3.99-.11,5.99-.16,9.98-.25,2.69-.06,4.7-.76,6.02-2.09,1.32-1.33,1.96-3.13,1.91-5.39-.05-2.21-.73-3.98-2.05-5.31-1.33-1.33-3.4-1.96-6.23-1.9-4.01.09-6.02.15-10.03.25.16,5.87.24,8.81.4,14.68Z"/><path class="cls-3" d="m275.66,95.52c-.62,0-1.14-.19-1.54-.58-.4-.39-.6-.9-.61-1.52-.2-18.39-.4-36.79-.6-55.18,0-.62.19-1.13.59-1.53.4-.4.92-.6,1.56-.61,9.45-.1,14.18-.12,23.63-.14,7.47-.01,13.36,1.69,17.65,5.08,4.29,3.39,6.4,8.18,6.36,14.34-.03,4.02-1.05,7.41-3.04,10.17-1.99,2.76-4.59,4.84-7.8,6.25,4.7,8.37,7.04,12.56,11.67,20.95.17.34.25.65.25.94,0,.45-.19.86-.56,1.23-.37.37-.81.55-1.32.54-4.49-.03-6.73-.04-11.22-.06-1.08,0-1.87-.27-2.38-.81-.51-.54-.88-1.03-1.1-1.49-3.87-7.48-5.81-11.21-9.73-18.67-3.53,0-5.29.01-8.82.03.04,7.54.06,11.31.1,18.85,0,.62-.19,1.13-.59,1.53-.4.4-.9.6-1.53.6-4.39.03-6.58.04-10.96.09Zm12.91-33.04c3.99-.02,5.99-.03,9.98-.03,2.7,0,4.72-.65,6.07-1.96,1.35-1.3,2.03-3.08,2.03-5.35,0-2.21-.64-3.99-1.94-5.35-1.3-1.36-3.36-2.04-6.18-2.03-4.01,0-6.02.01-10.03.03.03,5.87.05,8.81.08,14.69Z"/><path class="cls-3" d="m334.39,95.57c-.62,0-1.13-.21-1.52-.61s-.59-.91-.58-1.53c.2-18.39.4-36.79.61-55.18,0-.62.21-1.13.62-1.52.41-.39.93-.58,1.57-.58,13.52.16,27.05.42,40.57.78.64.02,1.15.23,1.55.64.39.41.58.92.57,1.54-.09,3.19-.13,4.79-.22,7.98-.02.62-.23,1.13-.65,1.51-.41.39-.94.57-1.57.55-11.03-.29-16.55-.41-27.58-.59-.08,4.58-.11,6.88-.19,11.46,10.23.17,15.35.28,25.57.54.63.02,1.14.24,1.53.68.39.44.58.96.56,1.59-.08,2.95-.12,4.43-.2,7.38-.02.57-.23,1.05-.64,1.47-.41.41-.93.61-1.56.6-10.18-.26-15.28-.37-25.46-.54-.08,4.72-.12,7.08-.19,11.8,11.17.18,16.75.31,27.91.6.63.02,1.13.23,1.52.64.39.41.57.92.56,1.54-.09,3.19-.13,4.79-.22,7.98-.02.62-.23,1.13-.64,1.51-.41.39-.92.57-1.55.55-13.45-.36-26.91-.62-40.36-.78Z"/><path class="cls-3" d="m410.4,98.39c-5.38-.22-9.94-1.26-13.71-3.15-3.76-1.89-6.66-4.56-8.68-8.02-2.02-3.46-3.13-7.76-3.15-12.75-.01-2.3.06-4.81.14-7.47.08-2.66.16-5.23.32-7.63.32-4.86,1.71-9.05,4.01-12.4,2.3-3.35,5.45-5.86,9.45-7.5,4-1.64,8.69-2.36,14.08-2.15,3.82.15,7.33.77,10.53,1.85,3.2,1.08,5.97,2.56,8.31,4.46,2.34,1.9,4.13,4.14,5.36,6.72,1.23,2.58,1.65,5.6,1.69,8.63,0,.49-.15.93-.54,1.25-.39.32-.84.47-1.36.44-4.65-.23-6.98-.34-11.63-.55-.75-.03-1.31-.22-1.7-.54-.39-.33-.71-.92-.96-1.79-.67-3.03-1.89-5.14-3.66-6.32-1.77-1.18-3.98-1.83-6.63-1.93-3.17-.13-5.71.64-7.62,2.3-1.91,1.66-3.03,4.5-3.34,8.5-.35,4.62-.53,9.4-.52,14.25.01,4.01.92,6.93,2.68,8.72,1.76,1.79,4.2,2.75,7.32,2.88,2.61.11,4.86-.37,6.73-1.42,1.87-1.05,3.24-3.03,4.11-5.94.26-.84.62-1.4,1.06-1.69.44-.29,1.03-.42,1.78-.39,4.62.21,6.93.32,11.56.55.51.03.95.22,1.3.58.35.36.46.81.41,1.3-.34,3.01-1.06,5.97-2.52,8.42-1.46,2.45-3.42,4.51-5.89,6.18-2.47,1.67-5.31,2.9-8.52,3.69-3.21.79-6.68,1.11-10.42.96Z"/><path class="cls-3" d="m460.87,100.05c-.62-.04-1.12-.27-1.49-.68-.37-.42-.54-.94-.51-1.56.85-14.63,1.71-29.27,2.56-43.9-6.15-.36-9.22-.53-15.37-.85-.63-.03-1.14-.27-1.52-.72-.38-.45-.56-.95-.53-1.52.19-3.63.28-5.44.47-9.07.03-.62.26-1.12.69-1.49.42-.37.96-.54,1.59-.51,15.57.83,31.13,1.76,46.67,2.86.64.04,1.14.28,1.52.7.38.42.54.95.5,1.57-.26,3.62-.38,5.44-.64,9.06-.04.57-.28,1.05-.71,1.44-.43.39-.97.57-1.6.53-6.14-.43-9.22-.63-15.36-1.03-.94,14.63-1.88,29.26-2.81,43.89-.04.62-.27,1.12-.69,1.49-.42.37-.94.54-1.57.5-4.48-.28-6.72-.42-11.2-.69Z"/><path class="cls-3" d="m500.32,102.68c-.62-.05-1.12-.28-1.48-.71-.37-.42-.53-.95-.48-1.57.3-4.17.46-6.25.76-10.41.05-.62.28-1.13.71-1.52.43-.39.96-.57,1.58-.52,4.2.31,6.29.47,10.49.8.57.04,1.05.29,1.44.75.39.46.56,1,.52,1.62-.33,4.16-.49,6.25-.82,10.41-.05.62-.3,1.11-.76,1.47-.45.36-.97.52-1.53.48-4.17-.33-6.26-.48-10.43-.79Zm1.73-18.69c-.63-.05-1.12-.3-1.49-.75-.37-.45-.53-.96-.49-1.53.89-12.11,1.78-24.22,2.66-36.32.05-.62.28-1.11.72-1.48.43-.36.97-.52,1.6-.48,3.99.3,5.98.45,9.97.76.58.04,1.07.28,1.47.71.4.43.58.95.53,1.57-.95,12.1-1.9,24.21-2.85,36.31-.04.56-.3,1.04-.76,1.43-.46.39-.98.56-1.54.52-3.93-.31-5.89-.45-9.82-.75Z"/></svg>